<svg xmlns="http://www.w3.org/2000/svg" viewBox="0 0 64 64">
  <rect width="64" height="64" rx="14" fill="#0c0c10"/>
  <line x1="32" y1="12" x2="32" y2="54" stroke="#6c8fff" stroke-width="2.5" stroke-linecap="round"/>
  <path d="M32 20 C24 24 24 30 32 34 C40 38 40 44 32 48" fill="none" stroke="#6c8fff" stroke-width="2" stroke-linecap="round"/>
  <path d="M32 20 C40 24 40 30 32 34 C24 38 24 44 32 48" fill="none" stroke="#6c8fff" stroke-width="2" stroke-linecap="round"/>
  <path d="M32 14 C26 10 18 12 16 16 C20 14 26 16 32 18" fill="#6c8fff" opacity="0.9"/>
  <path d="M32 14 C38 10 46 12 48 16 C44 14 38 16 32 18" fill="#6c8fff" opacity="0.9"/>
  <circle cx="32" cy="13" r="2.5" fill="#6c8fff"/>
</svg>
